PathFileType	4	(X/Y/Z)	./resultDataOpenSim/trcMotMarkerGrf/sub10/qtm-12-01.trc
DataRate	CameraRate	NumFrames	NumMarkers	Units	OrigDataRate	OrigDataStartFrame	OrigNumFrames
250.000000	250.000000	11	24	m	250.000000	175	465
Frame#	Time	L.Toe.Tip			R.Toe.Tip			L.Ankle.Lat			R.Ankle.Lat			L.Ankle.Med			R.Ankle.Med			L.Heel			R.Heel			L.Knee.Lat			R.Knee.Lat			L.Knee.Med			R.Knee.Med			L.Thigh.Upper			R.Thigh.Upper			L.ASIS			R.ASIS			V.Sacral			L.Acromium			R.Acromium			C7			L.Elbow			R.Elbow			L.Wrist.Lat			R.Wrist.Lat
		X1	Y1	Z1	X2	Y2	Z2	X3	Y3	Z3	X4	Y4	Z4	X5	Y5	Z5	X6	Y6	Z6	X7	Y7	Z7	X8	Y8	Z8	X9	Y9	Z9	X10	Y10	Z10	X11	Y11	Z11	X12	Y12	Z12	X13	Y13	Z13	X14	Y14	Z14	X15	Y15	Z15	X16	Y16	Z16	X17	Y17	Z17	X18	Y18	Z18	X19	Y19	Z19	X20	Y20	Z20	X21	Y21	Z21	X22	Y22	Z22	X23	Y23	Z23	X24	Y24	Z24

175	0.696	-0.024890403	0.025708443	-0.16371614	-0.79344167	0.038057364	-0.086081547	-0.15388196	0.042439688	-0.20887133	-0.91362148	0.1128136	-0.052421495	-0.15921756	0.064263009	-0.12450358	-0.87269549	0.12665651	-0.13111062	-0.22026754	0.0065384575	-0.17635652	-0.96282249	0.11417071	-0.10447908	-0.2360986	0.41601354	-0.23688104	-0.65715188	0.42185011	-0.00019876914	-0.23525733	0.39793127	-0.1157283	-0.61654887	0.41413724	-0.12256245	-0.36106808	0.77948174	-0.29918917	-0.52332501	0.80577735	0.058942825	-0.33163526	0.88380082	-0.20928508	-0.41206656	0.88560905	0.02564718	-0.559194	0.90513771	-0.17917951	-0.40914653	1.3560165	-0.2701595	-0.45835647	1.3541525	0.049575384	-0.51776118	1.385394	-0.12519762	-0.58126624	1.0639938	-0.32531745	-0.54401401	1.008162	0.13648683	-0.5444471	0.83106673	-0.39197725	-0.31370721	0.91381086	0.18007302
176	0.7	-0.023126844	0.023634546	-0.16364399	-0.79278855	0.038113446	-0.08564347	-0.15228469	0.042007567	-0.2085832	-0.91067498	0.11677853	-0.051088517	-0.15730466	0.063842145	-0.12408139	-0.86815881	0.12956366	-0.12894199	-0.21953403	0.0071441292	-0.17640436	-0.95856892	0.11981099	-0.10394076	-0.22922871	0.41732992	-0.23658361	-0.64926959	0.42213543	0.00093805341	-0.23003285	0.39841163	-0.11552245	-0.60805007	0.41334787	-0.12105241	-0.35329996	0.78003052	-0.29938881	-0.51510475	0.80547532	0.059432063	-0.32488194	0.88389454	-0.20922075	-0.4039861	0.88543717	0.025141265	-0.55204121	0.9055743	-0.17904201	-0.40272702	1.3562469	-0.27066861	-0.45206478	1.3545701	0.049358388	-0.51097438	1.3855058	-0.12598675	-0.57425084	1.0640086	-0.32454357	-0.53827791	1.0084019	0.13498351	-0.53781491	0.83092283	-0.39114979	-0.30867316	0.9133177	0.17961245
177	0.704	-0.021858166	0.022301017	-0.16402342	-0.79204692	0.038162881	-0.085171357	-0.15140245	0.041733406	-0.20833665	-0.90709082	0.12092226	-0.049627247	-0.15625359	0.063485994	-0.12384728	-0.86307218	0.13251019	-0.12657452	-0.21919731	0.0075286133	-0.1761774	-0.95376683	0.12565071	-0.1030025	-0.22218266	0.41883728	-0.23624392	-0.64098459	0.42242872	0.0022913649	-0.22456497	0.39916504	-0.11536857	-0.5990107	0.41252595	-0.11922816	-0.3455871	0.78075048	-0.2995504	-0.50684776	0.80520912	0.05995661	-0.31826779	0.88409927	-0.20916908	-0.39590083	0.88542153	0.024514011	-0.54489849	0.90607906	-0.17869361	-0.39626523	1.3565593	-0.27113723	-0.44571887	1.3550546	0.049155665	-0.50415939	1.3857489	-0.12650567	-0.5670443	1.0640883	-0.32366966	-0.53257942	1.0087423	0.13343001	-0.5310015	0.83080968	-0.39031321	-0.30376939	0.91282147	0.17915616
178	0.708	-0.021135779	0.021484491	-0.16456089	-0.79118367	0.038205278	-0.084674649	-0.15118134	0.041609012	-0.20819844	-0.9027739	0.12525	-0.048006537	-0.15591206	0.063242196	-0.12384731	-0.85742283	0.13548271	-0.12398844	-0.21908471	0.007759907	-0.17587985	-0.94835515	0.13166949	-0.10175714	-0.21496651	0.42046027	-0.23585819	-0.63229149	0.4226926	0.0038449731	-0.21878751	0.40022109	-0.11522818	-0.58942376	0.41162576	-0.11710998	-0.33796314	0.78163015	-0.29966948	-0.4985898	0.80499464	0.060492896	-0.31181178	0.88442448	-0.20914882	-0.38783551	0.88555426	0.023760565	-0.5377698	0.90664724	-0.17811209	-0.38979511	1.3569703	-0.27155284	-0.43931178	1.3556233	0.048965455	-0.49737033	1.3861306	-0.12667637	-0.5597484	1.0641617	-0.32291054	-0.52693107	1.0091852	0.13185649	-0.52394611	0.83073108	-0.38943797	-0.29894614	0.91233782	0.17871212
179	0.712	-0.020822344	0.020970333	-0.16493646	-0.79017153	0.038235099	-0.084149137	-0.15143821	0.041605443	-0.20818224	-0.89768345	0.12972878	-0.046185051	-0.15613382	0.063167976	-0.12410382	-0.85117722	0.13843931	-0.12115584	-0.21905249	0.007911265	-0.17568419	-0.94216354	0.13783694	-0.10031336	-0.20759497	0.42213003	-0.23544685	-0.62320611	0.42288961	0.005550537	-0.21269158	0.40157713	-0.11507071	-0.57935876	0.41056132	-0.11475466	-0.33044671	0.78267729	-0.2997501	-0.49035456	0.80484162	0.061025646	-0.30549644	0.88487594	-0.20916905	-0.37981305	0.88582219	0.022878265	-0.53065795	0.90727366	-0.17726888	-0.3833579	1.3574846	-0.27191509	-0.43283102	1.356285	0.048787902	-0.49058203	1.386625	-0.12671803	-0.55246355	1.0641873	-0.32238666	-0.52133702	1.0097287	0.13028033	-0.51657463	0.83070034	-0.38848865	-0.29419676	0.91187912	0.17829358
180	0.716	-0.020663373	0.020599296	-0.1650019	-0.78897056	0.038240195	-0.083564375	-0.15187966	0.04170605	-0.20823596	-0.89175135	0.13430791	-0.044102456	-0.15663953	0.063301089	-0.1245199	-0.84428052	0.14130408	-0.11805498	-0.21901708	0.0080544147	-0.17562247	-0.93497455	0.1441254	-0.098708559	-0.20008343	0.42376647	-0.23503896	-0.61371686	0.42297735	0.007331611	-0.20633426	0.4031594	-0.11490019	-0.56882492	0.40925332	-0.11220787	-0.32308512	0.78388718	-0.2998054	-0.48215773	0.80474277	0.061539475	-0.29926783	0.88544848	-0.20922163	-0.37185222	0.886204	0.02186707	-0.52356479	0.9079539	-0.1761255	-0.37696307	1.3580908	-0.2722398	-0.4262593	1.3570336	0.048633931	-0.48375857	1.3872006	-0.12681169	-0.54527512	1.0641792	-0.32210121	-0.51578775	1.01037	0.12870395	-0.50887528	0.83073378	-0.38747051	-0.28953114	0.91144566	0.17790355
181	0.72	-0.020452968	0.020264705	-0.16482229	-0.7875407	0.038199095	-0.082891632	-0.15219985	0.041896967	-0.20829259	-0.8850489	0.13889412	-0.041726234	-0.15704396	0.063626282	-0.12491794	-0.83673592	0.14399941	-0.11471539	-0.2189297	0.0082401671	-0.17564769	-0.92678902	0.15052521	-0.096899631	-0.19247017	0.42528775	-0.23465988	-0.6037624	0.42291965	0.0091228874	-0.19978823	0.40485247	-0.11474533	-0.55775332	0.40764522	-0.10949586	-0.31595962	0.78522729	-0.29985483	-0.474012	0.80467769	0.062016784	-0.29307102	0.88612359	-0.20931166	-0.36397587	0.88667346	0.020736785	-0.51649397	0.9086861	-0.1746457	-0.37058083	1.3587708	-0.27253502	-0.41957772	1.3578521	0.048510713	-0.47687636	1.3878415	-0.12696662	-0.53826251	1.0641766	-0.32205265	-0.51028008	1.0111207	0.1271281	-0.50092965	0.8308377	-0.38644614	-0.28495885	0.91102619	0.17753561
182	0.724	-0.020100922	0.019910304	-0.16459837	-0.78586751	0.038094203	-0.082147728	-0.15220243	0.042140075	-0.2083178	-0.87780323	0.1433963	-0.039074463	-0.15711675	0.064070569	-0.12519741	-0.82870931	0.14652142	-0.11125362	-0.21876228	0.0084853781	-0.17571884	-0.9179804	0.15705346	-0.094768218	-0.18484025	0.4266383	-0.23433277	-0.59326452	0.42269895	0.010917206	-0.19310572	0.40656148	-0.11462993	-0.54608274	0.40569611	-0.10664896	-0.30911806	0.78664741	-0.29992095	-0.46592606	0.80462918	0.062439517	-0.28688943	0.88688703	-0.20947145	-0.3562146	0.88720832	0.019507358	-0.50945769	0.90947251	-0.17283886	-0.36415318	1.3595101	-0.27279046	-0.41279153	1.3587185	0.048396548	-0.4699195	1.3885387	-0.12712183	-0.53147054	1.0642155	-0.32225863	-0.50484579	1.0120217	0.12557374	-0.49283669	0.83100547	-0.38548221	-0.28049229	0.91061127	0.17718572
183	0.728	-0.01960175	0.019522428	-0.16451236	-0.78395098	0.037966759	-0.081390367	-0.15187443	0.042372126	-0.20832277	-0.87020024	0.14781516	-0.036202134	-0.15687498	0.064542361	-0.12537146	-0.82046702	0.14900142	-0.10782783	-0.21850965	0.0087789448	-0.17581564	-0.90901929	0.1637431	-0.092202378	-0.17731409	0.42780582	-0.23407219	-0.58218961	0.42230475	0.012758092	-0.18631257	0.40824111	-0.11455641	-0.53380227	0.40339536	-0.1037059	-0.30254659	0.78809647	-0.30002403	-0.45790575	0.80459071	0.0627947	-0.28076073	0.88774581	-0.20973052	-0.34860239	0.88779443	0.018202761	-0.50248367	0.91031688	-0.17082554	-0.35762725	1.3603017	-0.2729954	-0.40594433	1.35961	0.048248246	-0.46287811	1.389276	-0.1272376	-0.52488488	1.0643141	-0.3227152	-0.49954149	1.0131278	0.12408097	-0.48462581	0.83123105	-0.38459567	-0.27614353	0.91020396	0.17685506
184	0.732	-0.018997045	0.019112573	-0.1646076	-0.78174373	0.037991905	-0.080652349	-0.1513479	0.042535228	-0.20834251	-0.86227181	0.15224484	-0.033186426	-0.15642438	0.064974516	-0.12548407	-0.8121767	0.15166254	-0.10455185	-0.21818667	0.0090911093	-0.17590031	-0.90006898	0.17060469	-0.089175124	-0.17001756	0.42880945	-0.23387724	-0.57058476	0.42172464	0.014693236	-0.17941302	0.40987541	-0.1145125	-0.52093144	0.40076812	-0.10070298	-0.29621138	0.78953092	-0.30017875	-0.44995974	0.80455972	0.063082282	-0.27474983	0.88871571	-0.21009565	-0.34116547	0.88842037	0.016849852	-0.49560701	0.91121083	-0.16884002	-0.35100256	1.3611425	-0.27315112	-0.39908598	1.3605044	0.048038724	-0.45575148	1.3900303	-0.12731012	-0.51844736	1.0644732	-0.32338626	-0.49438461	1.0144518	0.12267188	-0.47626121	0.8315163	-0.38376463	-0.2719095	0.90981186	0.17654511
185	0.736	-0.01835646	0.018699749	-0.16479868	-0.77911151	0.038461375	-0.079875881	-0.15078041	0.0426112	-0.20839874	-0.85394328	0.15679284	-0.030113106	-0.15585368	0.065334062	-0.12556583	-0.8038279	0.15467875	-0.10146964	-0.21781531	0.0093791741	-0.17588685	-0.89100338	0.17759588	-0.085722915	-0.16306526	0.42966946	-0.23373621	-0.55854528	0.42094588	0.01675641	-0.17242051	0.41144172	-0.11449363	-0.50749099	0.39785048	-0.09766463	-0.29008988	0.79091184	-0.3003924	-0.44210916	0.80453128	0.063316454	-0.26887583	0.88980293	-0.21054708	-0.33390856	0.88907179	0.015481307	-0.48884321	0.91211432	-0.16709184	-0.34432466	1.3620203	-0.27326472	-0.39223981	1.3613757	0.047771463	-0.44855269	1.3907804	-0.12735081	-0.51208423	1.0646861	-0.32421849	-0.48930676	1.0159274	0.12131956	-0.46769505	0.83186302	-0.38296785	-0.26776708	0.90943214	0.17625868
